<svg width="14" height="9" viewBox="0 0 14 9" fill="none" xmlns="http://www.w3.org/2000/svg">
<path d="M-1.18021e-07 2.7L-7.86805e-08 1.8L-3.93403e-08 0.899999L0 -6.11959e-07L1.75 -5.35465e-07L3.5 -4.5897e-07L3.5 0.9L3.5 1.8L5.25 1.8L5.25 2.7L5.25 3.6L5.25 4.5L7 4.5L8.75 4.5L8.75 3.6L8.75 2.7L8.75 1.8L10.5 1.8L10.5 0.9L10.5 -1.5299e-07L12.25 -7.64949e-08L14 0L14 0.9L14 1.8L14 2.7L14 3.6L12.25 3.6L12.25 4.5L12.25 5.4L10.5 5.4L10.5 6.3L10.5 7.2L8.75 7.2L8.75 8.1L8.75 9L7 9L5.25 9L5.25 8.1L5.25 7.2L3.5 7.2L3.5 6.3L3.5 5.4L1.75 5.4L1.75 4.5L1.75 3.6L-1.57361e-07 3.6L-1.18021e-07 2.7Z" fill="#00AB08"/>
</svg>
