<svg width="34" height="26" viewBox="0 0 34 26" fill="none" xmlns="http://www.w3.org/2000/svg">
<path d="M28.8012 2.17755C26.5714 1.14692 24.2125 0.414622 21.7868 0C21.4847 0.53963 21.1316 1.26543 20.8882 1.84285C18.2729 1.45436 15.6816 1.45436 13.1143 1.84285C12.871 1.26557 12.51 0.53963 12.2051 0C9.77697 0.414813 7.41605 1.14898 5.18525 2.18292C0.746131 8.80976 -0.457283 15.2718 0.144358 21.6424C3.08868 23.8145 5.94202 25.1339 8.74728 25.9974C9.44446 25.0503 10.0608 24.0475 10.5898 22.9996C9.58258 22.6208 8.61159 22.1539 7.68837 21.6046C7.93132 21.4267 8.16856 21.2414 8.39971 21.0487C13.994 23.6337 20.0726 23.6337 25.6003 21.0487C25.8324 21.2401 26.0696 21.4254 26.3115 21.6046C25.3868 22.1554 24.414 22.6231 23.4047 23.0023C23.9368 24.0546 24.552 25.0582 25.2472 26C28.0552 25.1367 30.9112 23.8172 33.8555 21.6424C34.5615 14.2574 32.6495 7.85449 28.8012 2.17741V2.17755ZM11.352 17.7246C9.67259 17.7246 8.29532 16.1758 8.29532 14.2898C8.29532 12.4038 9.64324 10.8523 11.352 10.8523C13.0609 10.8523 14.438 12.401 14.4087 14.2898C14.4113 16.1758 13.0609 17.7246 11.352 17.7246ZM22.6478 17.7246C20.9684 17.7246 19.5913 16.1758 19.5913 14.2898C19.5913 12.4038 20.9391 10.8523 22.6478 10.8523C24.3567 10.8523 25.7339 12.401 25.7045 14.2898C25.7045 16.1758 24.3567 17.7246 22.6478 17.7246Z" fill="#00AB08"/>
</svg>
