<svg width="22" height="26" viewBox="0 0 22 26" fill="none" xmlns="http://www.w3.org/2000/svg">
<path d="M17.4701 26H1.21885C0.498711 25.6648 0 25.1773 0 24.3139C0 17.5839 0 10.8535 0 4.12274C0 3.1172 0.685601 2.45191 1.69826 2.43769C2.20002 2.42956 2.70279 2.43769 3.27158 2.43769C3.1172 1.32042 3.38026 0.441831 4.46605 0H16.2482C16.3599 0.142179 16.4796 0.277829 16.6068 0.406282C17.9932 1.67185 19.3796 2.93843 20.7793 4.1908C20.8955 4.28346 20.9881 4.40241 21.0494 4.53785C21.1107 4.67329 21.1389 4.82136 21.1317 4.96984C21.1165 7.08454 21.1236 9.19923 21.1236 11.3139C21.1236 14.5459 21.1236 17.7779 21.1236 21.0098C21.1236 22.0834 20.4532 22.7365 19.3766 22.7518C19.1623 22.7518 18.9469 22.7518 18.6879 22.7518C18.6879 23.1713 18.6605 23.542 18.693 23.9076C18.7834 24.902 18.3964 25.6049 17.4701 26ZM4.89976 21.0881H19.4771V5.67982H15.0141V1.64849H4.89976V21.0881ZM17.0395 22.7497H5.18009C3.85968 22.7497 3.25025 22.1403 3.25025 20.8351V4.09634H1.66372V24.3495H17.0395V22.7497ZM16.689 2.67943V4.01813H18.1638L16.689 2.67943Z" fill="#00AB08"/>
<path d="M6.52997 8.96045H17.8378V10.5287H6.52997V8.96045Z" fill="#00AB08"/>
<path d="M6.52386 13.7771V12.2119H17.8358V13.7771H6.52386Z" fill="#00AB08"/>
<path d="M6.52997 15.4609H17.8378V17.0292H6.52997V15.4609Z" fill="#00AB08"/>
<path d="M6.52286 5.65053V4.08838H13.3657V5.65053H6.52286Z" fill="#00AB08"/>
</svg>
