<svg width="26" height="26" viewBox="0 0 26 26" fill="none" xmlns="http://www.w3.org/2000/svg">
<path d="M12.8047 0C9.40868 0 6.15175 1.36964 3.75041 3.80761C1.34906 6.24558 0 9.55219 0 13C0 16.4478 1.34906 19.7544 3.75041 22.1924C6.15175 24.6304 9.40868 26 12.8047 26C16.2007 26 19.4576 24.6304 21.859 22.1924C24.2603 19.7544 25.6094 16.4478 25.6094 13C25.6094 9.55219 24.2603 6.24558 21.859 3.80761C19.4576 1.36964 16.2007 0 12.8047 0ZM6.31784 13.4368L6.37162 13.3484L9.70084 8.0574C9.71223 8.04027 9.72788 8.02652 9.74621 8.01753C9.76454 8.00854 9.78489 8.00463 9.80518 8.00622C9.82548 8.0078 9.845 8.01482 9.86176 8.02655C9.87851 8.03828 9.89191 8.05431 9.90059 8.073C10.4563 9.3392 10.925 10.9148 10.7124 11.895C10.56 12.4075 10.3395 12.8965 10.0568 13.3484C10.0184 13.4212 9.97742 13.494 9.93132 13.5642C9.92076 13.5797 9.90659 13.5924 9.89006 13.601C9.87352 13.6096 9.85515 13.6139 9.83657 13.6136H6.41515C6.39462 13.6141 6.37433 13.609 6.35649 13.5986C6.33864 13.5883 6.32391 13.5732 6.31389 13.555C6.30387 13.5368 6.29894 13.5162 6.29964 13.4954C6.30033 13.4745 6.30663 13.4543 6.31784 13.4368ZM21.1713 15.2568C21.1717 15.2799 21.1653 15.3026 21.153 15.322C21.1407 15.3415 21.123 15.3568 21.1021 15.366C20.846 15.4778 19.96 15.886 19.5937 16.406C18.6564 17.7294 17.9419 19.6222 16.3414 19.6222H9.65986C9.09667 19.6215 8.53912 19.5082 8.01909 19.2887C7.49906 19.0691 7.02672 18.7477 6.62908 18.3428C6.23143 17.9379 5.91627 17.4574 5.7016 16.9288C5.48693 16.4002 5.37696 15.8338 5.37797 15.262V15.184C5.37864 15.1534 5.39108 15.1243 5.41262 15.1029C5.43416 15.0816 5.46309 15.0696 5.49321 15.0696H9.21938C9.23689 15.0702 9.2541 15.0745 9.26992 15.0821C9.28575 15.0898 9.29986 15.1006 9.31138 15.114C9.3229 15.1274 9.3316 15.1431 9.33691 15.1601C9.34223 15.177 9.34407 15.1949 9.34231 15.2126C9.31509 15.4624 9.36143 15.7149 9.47547 15.938C9.58356 16.16 9.75072 16.3468 9.95802 16.4773C10.1653 16.6078 10.4045 16.6768 10.6484 16.6764H12.4897V15.2178H10.6612C10.6399 15.2174 10.6192 15.2111 10.6012 15.1997C10.5832 15.1882 10.5685 15.1721 10.5588 15.1529C10.5491 15.1337 10.5447 15.1122 10.546 15.0907C10.5474 15.0692 10.5544 15.0484 10.5664 15.0306L10.633 14.9318C10.8046 14.6718 11.0505 14.2974 11.2963 13.858C11.4674 13.5574 11.6205 13.2465 11.7547 12.9272C11.7803 12.87 11.8008 12.8102 11.8239 12.753C11.8571 12.6516 11.8956 12.5554 11.9212 12.4618C11.9468 12.3682 11.9698 12.298 11.9903 12.22C12.051 11.94 12.0802 11.6539 12.0774 11.3672C12.0774 11.2502 12.0774 11.128 12.062 11.0136C12.0467 10.8992 12.0415 10.7536 12.0262 10.6314C12.0108 10.5092 11.9954 10.4078 11.9749 10.2934C11.9468 10.1244 11.9109 9.9554 11.87 9.7734L11.8546 9.7084C11.8239 9.5914 11.7957 9.4822 11.7598 9.3652C11.6548 9.0012 11.537 8.645 11.409 8.3252C11.3629 8.1926 11.3117 8.0652 11.2579 7.9404C11.1811 7.748 11.1017 7.5738 11.03 7.4204C10.9915 7.345 10.9608 7.2774 10.9301 7.2072C10.8994 7.137 10.8584 7.0512 10.82 6.9758C10.7816 6.9004 10.7636 6.864 10.7431 6.812L10.5178 6.3908C10.511 6.37805 10.508 6.36359 10.5092 6.34916C10.5103 6.33473 10.5155 6.32093 10.5241 6.30941C10.5328 6.2979 10.5445 6.28915 10.5579 6.28422C10.5713 6.27929 10.5858 6.27838 10.5997 6.2816L12.0082 6.669L12.1926 6.7236L12.3975 6.7808L12.4718 6.8016V5.954C12.4697 5.85507 12.4873 5.75672 12.5234 5.66481C12.5595 5.57289 12.6134 5.48928 12.682 5.41895C12.7505 5.34862 12.8323 5.29299 12.9225 5.25538C13.0126 5.21777 13.1093 5.19893 13.2068 5.2C13.3023 5.19924 13.3969 5.21821 13.485 5.25576C13.573 5.29331 13.6526 5.34864 13.7189 5.4184C13.854 5.55691 13.9303 5.74354 13.9315 5.9384V7.1994L14.0826 7.241L14.1159 7.2592L14.2721 7.3788C14.3259 7.4204 14.3822 7.4724 14.4488 7.527C14.5845 7.6388 14.7484 7.787 14.9252 7.9456C14.9712 7.9872 15.0173 8.0288 15.0609 8.073C15.2888 8.2888 15.5449 8.541 15.7907 8.8218C15.8599 8.9024 15.9265 8.9804 15.9956 9.0662C16.0648 9.152 16.1365 9.2352 16.1979 9.3262C16.2594 9.4172 16.3695 9.555 16.454 9.6772C16.4899 9.7344 16.5334 9.7942 16.5667 9.8514C16.6658 10.0035 16.7572 10.1606 16.8407 10.322C16.8766 10.3948 16.9124 10.4754 16.9432 10.5534C17.0373 10.7608 17.1094 10.9779 17.1583 11.2008C17.1731 11.2464 17.1834 11.2935 17.189 11.3412C17.2031 11.4071 17.2116 11.4741 17.2146 11.5414C17.2359 11.7647 17.2238 11.99 17.1788 12.2096C17.1583 12.3032 17.1327 12.3916 17.1019 12.4878C17.0712 12.584 17.0379 12.6724 16.997 12.7634C16.918 12.9526 16.8229 13.1344 16.7127 13.3068C16.6794 13.3718 16.6359 13.4394 16.5949 13.5044C16.5539 13.5694 16.5001 13.637 16.4592 13.6994C16.4182 13.7618 16.3388 13.8632 16.2748 13.9386C16.2201 14.0173 16.1611 14.0929 16.0981 14.1648C16.011 14.2714 15.9265 14.3702 15.842 14.4664C15.7899 14.531 15.7343 14.5926 15.6755 14.651C15.6192 14.716 15.5603 14.7732 15.509 14.8252C15.4578 14.8772 15.3477 14.9838 15.2862 15.0436L15.1403 15.1762C15.1301 15.1863 15.1181 15.1942 15.1049 15.1996C15.0917 15.205 15.0776 15.2076 15.0634 15.2074H13.9289V16.666H15.34C15.6548 16.6666 15.9594 16.5521 16.1979 16.3436C16.5046 16.0717 16.7954 15.7817 17.0687 15.4752C17.0825 15.4583 17.1014 15.4465 17.1224 15.4414L21.0176 14.3C21.0347 14.2952 21.0526 14.2945 21.0699 14.2978C21.0873 14.3012 21.1037 14.3085 21.1178 14.3194C21.1319 14.3302 21.1433 14.3441 21.1513 14.3602C21.1592 14.3762 21.1635 14.3939 21.1636 14.4118L21.1713 15.2568Z" fill="#00AB08"/>
</svg>
